<svg width="1315" height="658" viewBox="0 0 1315 658" fill="none" xmlns="http://www.w3.org/2000/svg">
<circle cx="212.5" cy="507.5" r="3.5" fill="#E7F0FC"/>
<circle cx="212.5" cy="528.5" r="3.5" fill="#E7F0FC"/>
<circle cx="212.5" cy="549.5" r="3.5" fill="#E7F0FC"/>
<circle cx="212.5" cy="570.5" r="3.5" fill="#E7F0FC"/>
<circle cx="212.5" cy="591.5" r="3.5" fill="#E7F0FC"/>
<circle cx="212.5" cy="612.5" r="3.5" fill="#E7F0FC"/>
<circle cx="212.5" cy="633.5" r="3.5" fill="#E7F0FC"/>
<circle cx="212.5" cy="654.5" r="3.5" fill="#E7F0FC"/>
<circle cx="233.5" cy="507.5" r="3.5" fill="#E7F0FC"/>
<circle cx="233.5" cy="528.5" r="3.5" fill="#E7F0FC"/>
<circle cx="233.5" cy="549.5" r="3.5" fill="#E7F0FC"/>
<circle cx="233.5" cy="570.5" r="3.5" fill="#E7F0FC"/>
<circle cx="233.5" cy="591.5" r="3.5" fill="#E7F0FC"/>
<circle cx="233.5" cy="612.5" r="3.5" fill="#E7F0FC"/>
<circle cx="233.5" cy="633.5" r="3.5" fill="#E7F0FC"/>
<circle cx="233.5" cy="654.5" r="3.5" fill="#E7F0FC"/>
<circle cx="254.5" cy="507.5" r="3.5" fill="#E7F0FC"/>
<circle cx="254.5" cy="528.5" r="3.5" fill="#E7F0FC"/>
<circle cx="254.5" cy="549.5" r="3.5" fill="#E7F0FC"/>
<circle cx="254.5" cy="570.5" r="3.5" fill="#E7F0FC"/>
<circle cx="254.5" cy="591.5" r="3.5" fill="#E7F0FC"/>
<circle cx="254.5" cy="612.5" r="3.5" fill="#E7F0FC"/>
<circle cx="254.5" cy="633.5" r="3.5" fill="#E7F0FC"/>
<circle cx="254.5" cy="654.5" r="3.5" fill="#E7F0FC"/>
<circle cx="275.5" cy="507.5" r="3.5" fill="#E7F0FC"/>
<circle cx="275.5" cy="528.5" r="3.5" fill="#E7F0FC"/>
<circle cx="275.5" cy="549.5" r="3.5" fill="#E7F0FC"/>
<circle cx="275.5" cy="570.5" r="3.5" fill="#E7F0FC"/>
<circle cx="275.5" cy="591.5" r="3.5" fill="#E7F0FC"/>
<circle cx="275.5" cy="612.5" r="3.5" fill="#E7F0FC"/>
<circle cx="275.5" cy="633.5" r="3.5" fill="#E7F0FC"/>
<circle cx="275.5" cy="654.5" r="3.5" fill="#E7F0FC"/>
<circle cx="296.5" cy="507.5" r="3.5" fill="#E7F0FC"/>
<circle cx="296.5" cy="528.5" r="3.5" fill="#E7F0FC"/>
<circle cx="296.5" cy="549.5" r="3.5" fill="#E7F0FC"/>
<circle cx="296.5" cy="570.5" r="3.5" fill="#E7F0FC"/>
<circle cx="296.5" cy="591.5" r="3.5" fill="#E7F0FC"/>
<circle cx="296.5" cy="612.5" r="3.5" fill="#E7F0FC"/>
<circle cx="296.5" cy="633.5" r="3.5" fill="#E7F0FC"/>
<circle cx="296.5" cy="654.5" r="3.5" fill="#E7F0FC"/>
<circle cx="317.5" cy="507.5" r="3.5" fill="#E7F0FC"/>
<circle cx="317.5" cy="528.5" r="3.5" fill="#E7F0FC"/>
<circle cx="317.5" cy="549.5" r="3.5" fill="#E7F0FC"/>
<circle cx="317.5" cy="570.5" r="3.5" fill="#E7F0FC"/>
<circle cx="317.5" cy="591.5" r="3.5" fill="#E7F0FC"/>
<circle cx="317.5" cy="612.5" r="3.5" fill="#E7F0FC"/>
<circle cx="317.5" cy="633.5" r="3.5" fill="#E7F0FC"/>
<circle cx="317.5" cy="654.5" r="3.5" fill="#E7F0FC"/>
<circle cx="338.5" cy="507.5" r="3.5" fill="#E7F0FC"/>
<circle cx="338.5" cy="528.5" r="3.5" fill="#E7F0FC"/>
<circle cx="338.5" cy="549.5" r="3.5" fill="#E7F0FC"/>
<circle cx="338.5" cy="570.5" r="3.5" fill="#E7F0FC"/>
<circle cx="338.5" cy="591.5" r="3.5" fill="#E7F0FC"/>
<circle cx="338.5" cy="612.5" r="3.5" fill="#E7F0FC"/>
<circle cx="338.5" cy="633.5" r="3.5" fill="#E7F0FC"/>
<circle cx="338.5" cy="654.5" r="3.5" fill="#E7F0FC"/>
<circle cx="359.5" cy="507.5" r="3.5" fill="#E7F0FC"/>
<circle cx="359.5" cy="528.5" r="3.5" fill="#E7F0FC"/>
<circle cx="359.5" cy="549.5" r="3.5" fill="#E7F0FC"/>
<circle cx="359.5" cy="570.5" r="3.5" fill="#E7F0FC"/>
<circle cx="359.5" cy="591.5" r="3.5" fill="#E7F0FC"/>
<circle cx="359.5" cy="612.5" r="3.5" fill="#E7F0FC"/>
<circle cx="359.5" cy="633.5" r="3.5" fill="#E7F0FC"/>
<circle cx="359.5" cy="654.5" r="3.5" fill="#E7F0FC"/>
<circle cx="380.5" cy="507.5" r="3.5" fill="#E7F0FC"/>
<circle cx="380.5" cy="528.5" r="3.5" fill="#E7F0FC"/>
<circle cx="380.5" cy="549.5" r="3.5" fill="#E7F0FC"/>
<circle cx="380.5" cy="570.5" r="3.5" fill="#E7F0FC"/>
<circle cx="380.5" cy="591.5" r="3.5" fill="#E7F0FC"/>
<circle cx="380.5" cy="612.5" r="3.5" fill="#E7F0FC"/>
<circle cx="380.5" cy="633.5" r="3.5" fill="#E7F0FC"/>
<circle cx="380.5" cy="654.5" r="3.5" fill="#E7F0FC"/>
<circle cx="401.5" cy="507.5" r="3.5" fill="#E7F0FC"/>
<circle cx="401.5" cy="528.5" r="3.5" fill="#E7F0FC"/>
<circle cx="401.5" cy="549.5" r="3.5" fill="#E7F0FC"/>
<circle cx="401.5" cy="570.5" r="3.5" fill="#E7F0FC"/>
<circle cx="401.5" cy="591.5" r="3.5" fill="#E7F0FC"/>
<circle cx="401.5" cy="612.5" r="3.5" fill="#E7F0FC"/>
<circle cx="401.5" cy="633.5" r="3.5" fill="#E7F0FC"/>
<circle cx="401.5" cy="654.5" r="3.5" fill="#E7F0FC"/>
<circle cx="3.5" cy="507.5" r="3.5" fill="#E7F0FC"/>
<circle cx="3.5" cy="528.5" r="3.5" fill="#E7F0FC"/>
<circle cx="3.5" cy="549.5" r="3.5" fill="#E7F0FC"/>
<circle cx="3.5" cy="570.5" r="3.5" fill="#E7F0FC"/>
<circle cx="3.5" cy="591.5" r="3.5" fill="#E7F0FC"/>
<circle cx="3.5" cy="612.5" r="3.5" fill="#E7F0FC"/>
<circle cx="3.5" cy="633.5" r="3.5" fill="#E7F0FC"/>
<circle cx="3.5" cy="654.5" r="3.5" fill="#E7F0FC"/>
<circle cx="24.5" cy="507.5" r="3.5" fill="#E7F0FC"/>
<circle cx="24.5" cy="528.5" r="3.5" fill="#E7F0FC"/>
<circle cx="24.5" cy="549.5" r="3.5" fill="#E7F0FC"/>
<circle cx="24.5" cy="570.5" r="3.5" fill="#E7F0FC"/>
<circle cx="24.5" cy="591.5" r="3.5" fill="#E7F0FC"/>
<circle cx="24.5" cy="612.5" r="3.5" fill="#E7F0FC"/>
<circle cx="24.5" cy="633.5" r="3.5" fill="#E7F0FC"/>
<circle cx="24.5" cy="654.5" r="3.5" fill="#E7F0FC"/>
<circle cx="45.5" cy="507.5" r="3.5" fill="#E7F0FC"/>
<circle cx="45.5" cy="528.5" r="3.5" fill="#E7F0FC"/>
<circle cx="45.5" cy="549.5" r="3.5" fill="#E7F0FC"/>
<circle cx="45.5" cy="570.5" r="3.5" fill="#E7F0FC"/>
<circle cx="45.5" cy="591.5" r="3.5" fill="#E7F0FC"/>
<circle cx="45.5" cy="612.5" r="3.5" fill="#E7F0FC"/>
<circle cx="45.5" cy="633.5" r="3.5" fill="#E7F0FC"/>
<circle cx="45.5" cy="654.5" r="3.5" fill="#E7F0FC"/>
<circle cx="66.5" cy="507.5" r="3.5" fill="#E7F0FC"/>
<circle cx="66.5" cy="528.5" r="3.5" fill="#E7F0FC"/>
<circle cx="66.5" cy="549.5" r="3.5" fill="#E7F0FC"/>
<circle cx="66.5" cy="570.5" r="3.5" fill="#E7F0FC"/>
<circle cx="66.5" cy="591.5" r="3.5" fill="#E7F0FC"/>
<circle cx="66.5" cy="612.5" r="3.5" fill="#E7F0FC"/>
<circle cx="66.5" cy="633.5" r="3.5" fill="#E7F0FC"/>
<circle cx="66.5" cy="654.5" r="3.5" fill="#E7F0FC"/>
<circle cx="87.5" cy="507.5" r="3.5" fill="#E7F0FC"/>
<circle cx="87.5" cy="528.5" r="3.5" fill="#E7F0FC"/>
<circle cx="87.5" cy="549.5" r="3.5" fill="#E7F0FC"/>
<circle cx="87.5" cy="570.5" r="3.5" fill="#E7F0FC"/>
<circle cx="87.5" cy="591.5" r="3.5" fill="#E7F0FC"/>
<circle cx="87.5" cy="612.5" r="3.5" fill="#E7F0FC"/>
<circle cx="87.5" cy="633.5" r="3.5" fill="#E7F0FC"/>
<circle cx="87.5" cy="654.5" r="3.5" fill="#E7F0FC"/>
<circle cx="108.5" cy="507.5" r="3.5" fill="#E7F0FC"/>
<circle cx="108.5" cy="528.5" r="3.5" fill="#E7F0FC"/>
<circle cx="108.5" cy="549.5" r="3.5" fill="#E7F0FC"/>
<circle cx="108.5" cy="570.5" r="3.5" fill="#E7F0FC"/>
<circle cx="108.5" cy="591.5" r="3.5" fill="#E7F0FC"/>
<circle cx="108.5" cy="612.5" r="3.5" fill="#E7F0FC"/>
<circle cx="108.5" cy="633.5" r="3.5" fill="#E7F0FC"/>
<circle cx="108.5" cy="654.5" r="3.5" fill="#E7F0FC"/>
<circle cx="129.5" cy="507.5" r="3.5" fill="#E7F0FC"/>
<circle cx="129.5" cy="528.5" r="3.5" fill="#E7F0FC"/>
<circle cx="129.5" cy="549.5" r="3.5" fill="#E7F0FC"/>
<circle cx="129.5" cy="570.5" r="3.5" fill="#E7F0FC"/>
<circle cx="129.5" cy="591.5" r="3.5" fill="#E7F0FC"/>
<circle cx="129.5" cy="612.5" r="3.5" fill="#E7F0FC"/>
<circle cx="129.5" cy="633.5" r="3.5" fill="#E7F0FC"/>
<circle cx="129.5" cy="654.5" r="3.5" fill="#E7F0FC"/>
<circle cx="150.5" cy="507.5" r="3.5" fill="#E7F0FC"/>
<circle cx="150.5" cy="528.5" r="3.5" fill="#E7F0FC"/>
<circle cx="150.5" cy="549.5" r="3.5" fill="#E7F0FC"/>
<circle cx="150.5" cy="570.5" r="3.5" fill="#E7F0FC"/>
<circle cx="150.5" cy="591.5" r="3.5" fill="#E7F0FC"/>
<circle cx="150.5" cy="612.5" r="3.5" fill="#E7F0FC"/>
<circle cx="150.5" cy="633.5" r="3.5" fill="#E7F0FC"/>
<circle cx="150.5" cy="654.5" r="3.5" fill="#E7F0FC"/>
<circle cx="171.5" cy="507.5" r="3.5" fill="#E7F0FC"/>
<circle cx="171.5" cy="528.5" r="3.5" fill="#E7F0FC"/>
<circle cx="171.5" cy="549.5" r="3.5" fill="#E7F0FC"/>
<circle cx="171.5" cy="570.5" r="3.5" fill="#E7F0FC"/>
<circle cx="171.5" cy="591.5" r="3.5" fill="#E7F0FC"/>
<circle cx="171.5" cy="612.5" r="3.5" fill="#E7F0FC"/>
<circle cx="171.5" cy="633.5" r="3.5" fill="#E7F0FC"/>
<circle cx="171.5" cy="654.5" r="3.5" fill="#E7F0FC"/>
<circle cx="192.5" cy="507.5" r="3.5" fill="#E7F0FC"/>
<circle cx="192.5" cy="528.5" r="3.5" fill="#E7F0FC"/>
<circle cx="192.5" cy="549.5" r="3.5" fill="#E7F0FC"/>
<circle cx="192.5" cy="570.5" r="3.5" fill="#E7F0FC"/>
<circle cx="192.5" cy="591.5" r="3.5" fill="#E7F0FC"/>
<circle cx="192.5" cy="612.5" r="3.5" fill="#E7F0FC"/>
<circle cx="192.5" cy="633.5" r="3.5" fill="#E7F0FC"/>
<circle cx="192.5" cy="654.5" r="3.5" fill="#E7F0FC"/>
<path d="M268 150C268 67.1573 335.157 0 418 0H1315V619H268V150Z" fill="#F4F9FF"/>
</svg>
